<?xml version="1.0" encoding="UTF-8"?>
<svg version="1.1" xmlns="http://www.w3.org/2000/svg" width="1280" height="1280">
<path d="M0 0 C4.00768686 1.82830012 7.46636144 4.3995337 11 7 C11.67321289 7.48839355 12.34642578 7.97678711 13.04003906 8.47998047 C17.88097472 11.99397537 22.68646272 15.55403079 27.48291016 19.12841797 C30.74454852 21.55360901 34.0194529 23.96048314 37.29492188 26.36694336 C44.54129861 31.69155141 51.75690206 37.05465943 58.94213867 42.46142578 C64.10396689 46.34065678 69.29757924 50.17542743 74.5 54 C80.35534525 58.30457163 86.19304178 62.63036431 92 67 C97.74761986 71.32350099 103.52060807 75.61098345 109.3125 79.875 C110.10640137 80.45950928 110.90030273 81.04401855 111.71826172 81.64624023 C115.75352453 84.6154539 119.79162068 87.58076452 123.83203125 90.54296875 C132.24711274 96.7189321 140.60283386 102.95891066 148.87646484 109.32324219 C153.29199654 112.71346372 157.74776499 116.03848057 162.25 119.3125 C169.22831672 124.38849303 176.08109833 129.62210691 182.93359375 134.86621094 C189.73844563 140.06367582 196.60458119 145.17134427 203.52050781 150.2199707 C207.34055992 153.01407817 211.14309931 155.83135105 214.9140625 158.69140625 C215.6457666 159.2438501 216.3774707 159.79629395 217.13134766 160.36547852 C220.63549316 163.43057574 221.67158723 166.61791269 222.29296875 171.125 C222.32649942 174.98773296 221.61611163 177.2471194 219.15234375 180.2578125 C213.80058356 185.25278868 207.79033675 189.34835335 201.734375 193.43359375 C197.33925432 196.41974659 193.08018126 199.58560521 188.8125 202.75 C182.56980408 207.3734131 176.30611001 211.96342983 170 216.5 C163.80332935 220.96002842 157.64015852 225.46249297 151.5 230 C144.6229644 235.08205078 137.70966917 240.11002797 130.76953125 245.10546875 C125.31916038 249.03392105 119.90332922 253.00714521 114.5 257 C106.12062325 263.19025495 97.68892429 269.30474458 89.23388672 275.39111328 C85.48640231 278.09012118 81.74338799 280.79531494 78 283.5 C73.51389621 286.74131453 69.02695169 289.98141954 64.53515625 293.21484375 C56.8016363 298.78537768 49.0989087 304.39311984 41.4375 310.0625 C34.71375601 315.03494004 27.94127817 319.92798955 21.08642578 324.71826172 C17.70451239 327.08199906 14.34816507 329.46865 11.0390625 331.93359375 C10.4097583 332.39797852 9.7804541 332.86236328 9.13208008 333.34082031 C7.96112416 334.20745024 6.79631992 335.08248736 5.6394043 335.96777344 C2.13051656 338.5496936 -0.63734919 339.76564272 -5 340 C-8.94898501 338.66136101 -12.44334808 337.40886922 -15 334 C-15.93166757 331.20499728 -16.13530365 329.47802434 -16.16062927 326.58624268 C-16.1706749 325.68350616 -16.18072052 324.78076965 -16.19107056 323.85067749 C-16.19690155 322.86258087 -16.20273254 321.87448425 -16.20874023 320.85644531 C-16.21852402 319.81386566 -16.2283078 318.77128601 -16.23838806 317.69711304 C-16.26834557 314.2407967 -16.28972797 310.78451905 -16.30859375 307.328125 C-16.31516558 306.14809654 -16.3217374 304.96806808 -16.32850838 303.75228119 C-16.36110275 297.50674132 -16.38555408 291.26121853 -16.4050293 285.015625 C-16.4228485 279.84545098 -16.45767975 274.67582172 -16.50756836 269.50585938 C-16.56772388 263.26482374 -16.59849886 257.02429363 -16.60820198 250.78298187 C-16.61676513 248.40511953 -16.63560413 246.027271 -16.6649456 243.64957428 C-16.70382872 240.31949397 -16.70489809 236.99138599 -16.69702148 233.66113281 C-16.71702209 232.68113312 -16.73702271 231.70113342 -16.75762939 230.69143677 C-16.69500374 224.78614652 -15.72138349 221.61070741 -11.54486752 217.36043549 C-9.37065202 215.44578592 -7.16071717 213.77612944 -4.7265625 212.203125 C-3.25461426 211.23898682 -3.25461426 211.23898682 -1.75292969 210.25537109 C-0.72071289 209.59359863 0.31150391 208.93182617 1.375 208.25 C3.54482151 206.8315712 5.71409206 205.41229922 7.8828125 203.9921875 C8.93500977 203.30737305 9.98720703 202.62255859 11.07128906 201.91699219 C14.83372642 199.45428311 18.551597 196.93256596 22.25 194.375 C23.1627771 193.74416504 23.1627771 193.74416504 24.09399414 193.10058594 C25.35752167 192.22536682 26.62028013 191.34903654 27.88232422 190.47167969 C29.44267743 189.38731156 31.00440572 188.30492144 32.56689453 187.22363281 C35.31789543 185.31928163 38.06560357 183.41026577 40.8125 181.5 C41.6797168 180.89978027 42.54693359 180.29956055 43.44042969 179.68115234 C44.65520996 178.83351318 44.65520996 178.83351318 45.89453125 177.96875 C46.61487549 177.46794922 47.33521973 176.96714844 48.07739258 176.45117188 C51.84919065 173.70832822 51.84919065 173.70832822 53.43359375 169.53515625 C52.85715847 166.16482744 51.7859606 165.46310214 49.0625 163.4375 C47.68771484 162.40496094 47.68771484 162.40496094 46.28515625 161.3515625 C45.19222201 160.56475809 44.09700901 159.78111308 43 159 C42.38882324 158.56268555 41.77764648 158.12537109 41.14794922 157.67480469 C37.63244029 155.16684778 34.10144189 152.68178615 30.5625 150.20703125 C26.00828693 147.01693389 21.50064459 143.76506815 17 140.5 C10.26507867 135.61461426 3.48866408 130.79319472 -3.34375 126.04492188 C-14.61401503 118.15795491 -14.61401503 118.15795491 -16 114 C-16.09465734 112.55190586 -16.13485329 111.09988596 -16.14044189 109.64871216 C-16.14615204 108.75991364 -16.15186218 107.87111511 -16.15774536 106.9553833 C-16.15942215 105.49657745 -16.15942215 105.49657745 -16.16113281 104.00830078 C-16.16609772 102.98201569 -16.17106262 101.95573059 -16.17617798 100.89834595 C-16.19080417 97.49732802 -16.19760205 94.09635673 -16.203125 90.6953125 C-16.20887566 88.33503213 -16.2146334 85.97475177 -16.22039795 83.61447144 C-16.23090895 78.66306337 -16.23675111 73.71167156 -16.24023438 68.76025391 C-16.24572217 62.41249941 -16.26975607 56.06495908 -16.29820633 49.7172718 C-16.31681918 44.84112925 -16.32203757 39.96503845 -16.32357025 35.08886337 C-16.32659988 32.7484711 -16.33463879 30.4080798 -16.34775543 28.06772232 C-16.36478882 24.79514454 -16.36294219 21.52309227 -16.35644531 18.25048828 C-16.3656601 17.28199951 -16.37487488 16.31351074 -16.3843689 15.31567383 C-16.34655883 9.24315851 -15.51467692 5.80483195 -11.375 1.1875 C-7.49455304 -0.75272348 -4.23717351 -0.86714249 0 0 Z " fill="#AAD3C6" transform="translate(444,398)"/>
<path d="M0 0 C3.83507206 -0.50193172 7.22032831 -2.42422487 10.68359375 -4.0625 C19.49628384 -7.62918739 30.74135724 -7.1412106 39.6171875 -4.05078125 C44.9106189 -1.71646478 50.08730616 0.98382086 54.09375 5.20703125 C54.7228125 5.79871094 55.351875 6.39039063 56 7 C59.26774656 6.79682803 59.26774656 6.79682803 63 6 C74.30971014 5.08762002 83.91123551 8.2252928 93 15 C97.61794914 19.27651113 100.20400843 22.92125929 102 29 C102.96679688 28.95359375 103.93359375 28.9071875 104.9296875 28.859375 C116.91227343 28.5271845 126.03207394 30.61258701 135 39 C137.68788963 42.10087268 139.64379021 45.21027977 141.33203125 48.953125 C143.14866496 52.27156597 144.93433375 53.90819283 147.875 56.25 C153.75234361 61.31223757 156.5776371 66.7329113 159 74 C158.98259766 75.44826172 158.98259766 75.44826172 158.96484375 76.92578125 C158.93598345 80.50033607 159.09526431 83.53541974 160 87 C162.29902226 89.14516799 164.53501695 90.26905104 167.359375 91.6328125 C174.20991217 95.17968825 178.01589129 101.6440451 180.3515625 108.80078125 C181.89773215 116.4291725 181.70110554 124.80010244 180.25 132.4375 C179.90209269 137.3951791 181.32294877 140.85694452 184 145 C185.46009054 146.48461988 185.46009054 146.48461988 187.0625 147.6875 C190.86889424 150.68402312 192.60003296 153.29898801 193.31640625 158.13671875 C193.62229077 163.94852462 192.33795748 167.2712269 189 172 C188.33355469 172.61617187 187.66710937 173.23234375 186.98046875 173.8671875 C184.724397 176.29680323 184.02934139 178.16246836 183.0625 181.3125 C180.97504962 187.41992319 178.68734919 192.06260873 173.3125 195.9375 C171 197 171 197 169 197 C168.9175 198.155 168.835 199.31 168.75 200.5 C167.71674613 208.31139928 164.2879619 213.53735736 158.1953125 218.4609375 C150.52495726 223.83837516 142.15864664 226.06709224 132.84375 224.453125 C128.64990433 223.435806 124.58573398 222.19873117 120.5 220.8125 C117.80409689 219.79394262 117.80409689 219.79394262 114 220 C113.236875 220.763125 112.47375 221.52625 111.6875 222.3125 C108.14395821 225.85604179 104.88186097 227.78028365 99.796875 228.16796875 C94.53162738 227.92619718 91.29695962 226.39615666 87.5078125 222.765625 C85.17817576 220.03765658 83.60301657 217.20603313 82 214 C80.906875 214.185625 79.81375 214.37125 78.6875 214.5625 C67.97638421 214.37654313 57.83601568 199.98644876 50.90112305 192.91674805 C47.42531429 189.37739485 43.96316846 185.90322207 40.18359375 182.6875 C36.65171841 179.65967605 33.3691845 176.41656363 30.109375 173.1015625 C29.59255661 172.57686371 29.07573822 172.05216492 28.54325867 171.51156616 C26.39579748 169.32759571 24.25148184 167.14071997 22.11621094 164.94482422 C20.53730355 163.32366706 18.94915652 161.71204742 17.359375 160.1015625 C16.88014587 159.60371246 16.40091675 159.10586243 15.90716553 158.59292603 C13.41879281 156.08563598 11.59410588 154.33801131 8 154 C6.45668878 154.12725549 4.91494378 154.27447664 3.375 154.4375 C-3.55303952 154.5085048 -7.06993964 150.38730142 -12 146 C-13.75411673 144.6857215 -15.52541632 143.39408841 -17.3125 142.125 C-21.64167165 139.00973056 -25.89928012 135.81573979 -30.125 132.5625 C-30.97831909 131.90628662 -30.97831909 131.90628662 -31.84887695 131.23681641 C-35.86408926 128.13591074 -35.86408926 128.13591074 -37 127 C-36.68099966 121.5769942 -35.5043845 118.16737616 -32 114 C-26.85039089 110.23199334 -21.14527293 110.18368763 -15 111 C-11.04668794 112.90344655 -9.34815999 114.47743341 -6.91796875 118.125 C-5.28444083 120.11160817 -4.43880009 120.89798923 -1.91015625 121.48583984 C0.52267056 121.59008932 2.88226315 121.52461206 5.3125 121.375 C6.14845703 121.34792969 6.98441406 121.32085937 7.84570312 121.29296875 C9.89825247 121.22259563 11.94946591 121.11498322 14 121 C13.0615625 120.08476562 12.123125 119.16953125 11.15625 118.2265625 C9.93723959 117.02630609 8.71850371 115.82577081 7.5 114.625 C6.87996094 114.02171875 6.25992188 113.4184375 5.62109375 112.796875 C5.03457031 112.21679688 4.44804688 111.63671875 3.84375 111.0390625 C3.29912109 110.50490723 2.75449219 109.97075195 2.19335938 109.42041016 C1 108 1 108 1 106 C-4.95881843 105.77630053 -10.91515786 105.61364929 -16.87719727 105.50561523 C-18.9017192 105.46055408 -20.92595147 105.39928233 -22.94946289 105.32104492 C-34.59053436 104.45227969 -34.59053436 104.45227969 -45.24658203 108.07861328 C-47.65403538 110.50158336 -47.65403538 110.50158336 -49.41625977 113.14868164 C-49.93889404 113.7596167 -50.46152832 114.37055176 -51 115 C-54.05776938 114.85827298 -54.96295147 114.03396115 -57.25 111.9375 C-58.11625 110.9784375 -58.11625 110.9784375 -59 110 C-57.59111941 105.51719813 -55.45463345 103.14057586 -52 100 C-51.18063965 99.13858398 -50.3612793 98.27716797 -49.51708984 97.38964844 C-45.18334988 93.82181561 -40.36363315 94.24522206 -34.9765625 94.265625 C-33.38634781 94.25133453 -33.38634781 94.25133453 -31.76400757 94.23675537 C-29.52662385 94.22461659 -27.2891374 94.22540425 -25.05175781 94.23828125 C-21.6420422 94.24994172 -18.23729833 94.19773998 -14.828125 94.140625 C-12.64844096 94.1367389 -10.46874631 94.1366153 -8.2890625 94.140625 C-7.27735992 94.12018127 -6.26565735 94.09973755 -5.22329712 94.07867432 C1.30818076 94.18476147 4.69235268 95.53023994 9.34780884 100.15106201 C11.5395787 102.60383301 13.67233019 105.09945222 15.79174805 107.61474609 C18.07274423 110.07857503 20.48463816 112.27716697 22.98538208 114.51252747 C29.16480378 120.06041521 34.5500798 125.74292343 39.6015625 132.33203125 C49.44252199 144.70626811 58.75128608 155.92614696 75.21835327 158.00187683 C89.46521483 159.1384443 103.79545542 158.40221505 118 157 C118.27714844 156.22140625 118.55429687 155.4428125 118.83984375 154.640625 C120.48991117 150.884916 122.36561966 149.85022999 126 148 C130.82320515 146.60920517 134.70936124 146.51629956 139.3125 148.625 C143.52248494 151.06059765 145.83093452 154.05155753 148.3125 158.1875 C149.55664079 163.27716685 149.41837665 168.44406625 146.8359375 173.09765625 C143.54877455 177.23737216 140.17024669 179.5978992 135 181 C129.04563907 181.2394236 124.49674498 180.07844312 120 176 C118.86254883 174.01196289 118.86254883 174.01196289 117.83203125 171.84765625 C117.48503174 171.12715088 117.13803223 170.40664551 116.78051758 169.66430664 C116.52294678 169.11508545 116.26537598 168.56586426 116 168 C115.03946465 168.00999275 115.03946465 168.00999275 114.05952454 168.02018738 C107.39235456 168.08657792 100.72527856 168.1318162 94.05786133 168.16479492 C91.5698668 168.17987761 89.08189883 168.20034654 86.59399414 168.22631836 C83.01702312 168.26272337 79.44040378 168.27973184 75.86328125 168.29296875 C74.75165115 168.30845261 73.64002106 168.32393646 72.4947052 168.33988953 C71.45400375 168.34011612 70.41330231 168.34034271 69.34106445 168.34057617 C67.97205742 168.35056892 67.97205742 168.35056892 66.57539368 168.36076355 C61.94503054 167.71213796 58.89823237 165.24806756 55.98681641 161.72192383 C55.44548065 161.0816777 54.9041449 160.44143158 54.34640503 159.78178406 C53.77060699 159.09711563 53.19480896 158.4124472 52.6015625 157.70703125 C37.4013808 139.00546374 37.4013808 139.00546374 15.98342896 130.51429749 C13.89253111 130.46419523 11.83827739 130.51477375 9.75 130.625 C8.7478244 130.67124008 8.7478244 130.67124008 7.72540283 130.71841431 C1.86183391 131.10033989 -2.60441047 131.48607101 -6.671875 135.8984375 C-7.11015625 136.92195312 -7.5484375 137.94546875 -8 139 C-8.9752354 140.35155233 -9.9712527 141.68871941 -11 143 C-10.28457031 142.96334229 -9.56914063 142.92668457 -8.83203125 142.88891602 C-5.55513461 142.74239889 -2.27892791 142.65205823 1 142.5625 C2.12535156 142.50384766 3.25070312 142.44519531 4.41015625 142.38476562 C13.8603838 142.19133991 13.8603838 142.19133991 17.984375 145.69140625 C19.34851155 147.10331621 20.68313684 148.54389916 22 150 C22.98887431 151.00431749 23.98349144 152.0029986 24.98242188 152.99731445 C29.03154915 157.03221016 33.03962763 161.10700266 37.02929688 165.20068359 C38.74720734 166.96082998 40.47435597 168.71146409 42.203125 170.4609375 C42.72610168 171.0025351 43.24907837 171.54413269 43.78790283 172.10214233 C47.92772294 176.2708857 50.1546338 176.9491367 55.94165039 177.10864258 C57.55617268 177.10503474 59.17068842 177.09577369 60.78515625 177.08203125 C62.1010952 177.0778997 62.1010952 177.0778997 63.44361877 177.07368469 C69.17651382 177.04755775 74.9056382 176.9431237 80.63705444 176.81613159 C84.57405686 176.74280604 88.51037562 176.72315745 92.44799805 176.71313477 C94.45386432 176.69593461 96.45965625 176.65526651 98.46459961 176.59204102 C117.00585937 176.03854819 117.00585937 176.03854819 124.13575745 182.64497375 C128.48468599 187.24834666 132.02834 191.06824563 132.31640625 197.5703125 C132.35830078 198.46621094 132.40019531 199.36210938 132.44335938 200.28515625 C132.50233398 201.69087891 132.50233398 201.69087891 132.5625 203.125 C132.60568359 204.06988281 132.64886719 205.01476562 132.69335938 205.98828125 C132.79959072 208.32537092 132.90163176 210.6625683 133 213 C143.7038507 213.66816289 143.7038507 213.66816289 153 209 C155.96535216 205.59238261 157.67686986 202.31944807 158.75 197.9375 C157.73728578 193.97103595 155.46764038 192.38196948 152.51171875 189.671875 C151 188 151 188 150.75 185.1875 C152.3804087 182.33428478 153.89778314 181.87498424 157 181 C157.45890625 181.44472656 157.9178125 181.88945313 158.390625 182.34765625 C159.00421875 182.91355469 159.6178125 183.47945312 160.25 184.0625 C160.85328125 184.63097656 161.4565625 185.19945312 162.078125 185.78515625 C163.91363974 187.20943834 163.91363974 187.20943834 166.06640625 186.86328125 C169.30061119 185.41932308 170.93363315 182.79238764 173 180 C173.33 179.01 173.66 178.02 174 177 C173.113125 176.773125 172.22625 176.54625 171.3125 176.3125 C166.41598109 174.37236986 163.91354155 171.59023899 161.3125 167.0625 C160 164 160 164 159.13288879 161.11618042 C155.67417192 151.60246128 146.60366721 142.9760836 138 138 C128.30430007 135.21777997 117.91307323 136.12260942 107.94689941 136.74603271 C102.28920542 137.0878888 96.62855298 137.28575364 90.96259117 137.42218399 C89.0100966 137.49033527 87.0605298 137.63041346 85.11201477 137.77243042 C76.41706955 138.10165767 76.41706955 138.10165767 72.23548889 134.85081482 C69.9550281 132.33352609 67.96045982 129.77022089 66 127 C64.32180455 125.04874355 62.57330114 123.19127777 60.8125 121.3125 C60.03519531 120.46300781 59.25789062 119.61351562 58.45703125 118.73828125 C56.09700036 116.67894587 56.09700036 116.67894587 53.04296875 117.2109375 C51.53669922 117.60152344 51.53669922 117.60152344 50 118 C44.69947559 118.45411796 40.40482335 118.68964056 35.5625 116.3125 C31.81619342 112.93168675 28.86812716 110.07665665 28 105 C28.17410394 103.62323965 28.36234506 102.24821493 28.5625 100.875 C28.64492155 97.31909873 28.11927897 96.15228976 25.8828125 93.296875 C23.32873817 90.76501001 20.7094305 88.36381811 18 86 C17.54758973 85.46761845 17.09517946 84.93523689 16.62905979 84.38672256 C14.47691522 82.55472876 13.2568733 82.63287108 10.45457458 82.64837646 C9.52251694 82.64595444 8.59045929 82.64353241 7.63015747 82.64103699 C6.60937103 82.65346939 5.58858459 82.66590179 4.53686523 82.67871094 C3.46009018 82.67976334 2.38331512 82.68081573 1.27391052 82.68190002 C-1.06857138 82.6855124 -3.4110501 82.6956831 -5.75348091 82.71157074 C-9.46579159 82.73452579 -13.17750609 82.73570067 -16.88987732 82.73028564 C-27.44638161 82.71759797 -38.00249774 82.73448741 -48.55883789 82.79052734 C-55.01401145 82.82325182 -61.46845177 82.82189726 -67.92365837 82.79950714 C-70.37994855 82.79776224 -72.83628453 82.80898177 -75.29245186 82.83361053 C-78.73949248 82.86733584 -82.18400436 82.85772226 -85.63110352 82.83886719 C-86.63772034 82.85939651 -87.64433716 82.87992584 -88.68145752 82.90107727 C-96.20168549 82.79282189 -101.63630898 80.38443728 -107 75 C-107 74.01 -107 73.02 -107 72 C-105.76235649 72.07780449 -105.76235649 72.07780449 -104.49971008 72.15718079 C-61.28139788 76.96621178 -61.28139788 76.96621178 -22.81425476 62.71690369 C-17.49163663 57.44587916 -12.90245008 51.48059884 -8.98950195 45.1003418 C-5.57780632 39.78372345 -5.57780632 39.78372345 -3 38 C0.20775229 37.40628008 3.3660177 37.41573929 6.62109375 37.43359375 C7.55800552 37.42739517 8.4949173 37.42119659 9.46022034 37.41481018 C11.43969688 37.40771322 13.41923312 37.41088388 15.39868164 37.42358398 C18.42380977 37.43743731 21.44583686 37.40339294 24.47070312 37.36523438 C26.39583409 37.36428303 28.32096892 37.36614282 30.24609375 37.37109375 C31.14831161 37.35783554 32.05052948 37.34457733 32.98008728 37.33091736 C37.01249872 37.39054269 39.28106809 37.47138956 42.5859375 39.90136719 C43.97597326 41.6855838 45.36495786 43.47062272 46.75099182 45.25794983 C57.15903973 58.41626387 57.15903973 58.41626387 72.17529297 64.74365234 C79.4303029 65.3957822 86.63523587 65.18253709 93.89556885 64.78131104 C96.6494015 64.6547936 99.40014313 64.63186527 102.15650082 64.61116314 C105.46926801 64.57990543 108.77831711 64.48401945 112.08984375 64.38671875 C113.92566261 64.34680061 113.92566261 64.34680061 115.79856873 64.30607605 C121.77178195 64.12519522 121.77178195 64.12519522 126.8833313 61.43838501 C128.72039263 58.9516783 129.86914894 56.47582203 130.6875 53.5 C129.35750484 48.66365395 126.11953169 45.42974327 122.01953125 42.6640625 C116.15145234 39.64985803 109.42112623 38.04916737 103 40 C100.91206259 42.478956 100.91206259 42.478956 99.125 45.5 C96.91895897 48.7020521 95.39037846 50.6813716 91.515625 51.56933594 C74.80153482 53.12771935 74.80153482 53.12771935 70.18505859 49.62158203 C69 48 69 48 69.25 45.375 C70 43 70 43 71 42 C74.54903222 41.61907306 78.09473962 41.27789256 81.65429688 41.01367188 C85.3860414 40.65108621 87.47564967 40.39407193 90.53125 38.09765625 C92.23446225 36.04948127 92.23446225 36.04948127 92.1875 33.25 C90.06038034 27.42840936 85.85634955 22.79763028 80.5625 19.5625 C74.29686797 16.73486884 66.75429391 17.16393917 60 17 C63.1853221 20.69937984 66.35907611 24.35907611 69.8125 27.8125 C72 30 72 30 74 33 C73.8125 35.5625 73.8125 35.5625 73 38 C70 40 70 40 67.59375 39.88671875 C64.36506905 38.78293776 62.84493609 37.27715994 60.5 34.8125 C59.7678125 34.05582031 59.035625 33.29914063 58.28125 32.51953125 C56 30 56 30 54.13818359 26.89233398 C52.29029594 24.68992938 51.27687395 24.06130545 48.43621826 23.43232727 C45.11314064 23.20370228 41.83869205 23.16875871 38.5078125 23.203125 C37.28851044 23.19738464 36.06920837 23.19164429 34.81295776 23.18572998 C32.23580059 23.18165008 29.6585814 23.19270059 27.08154297 23.21777344 C23.14539223 23.2498339 19.21336519 23.21810693 15.27734375 23.1796875 C12.7708243 23.18365348 10.2643074 23.19134315 7.7578125 23.203125 C5.99813644 23.18490692 5.99813644 23.18490692 4.20291138 23.1663208 C-2.24246873 23.27668911 -6.14286422 23.80652911 -10.73530579 28.52172852 C-11.15265488 29.00955811 -11.57000397 29.4973877 -12 30 C-12.61488281 30.65484375 -13.22976563 31.3096875 -13.86328125 31.984375 C-14.58064453 32.85835938 -14.58064453 32.85835938 -15.3125 33.75 C-18.06815651 36.99486295 -20.96899561 40.01026496 -24 43 C-28.21785823 47.16657727 -32.13881223 51.50566047 -36 56 C-38.9973566 59.43814433 -40.52385489 60.3395528 -45 61 C-46.8754875 61.05561824 -48.75300686 61.05765833 -50.62890625 61.01831055 C-52.28587524 60.98914803 -52.28587524 60.98914803 -53.97631836 60.95939636 C-55.1597583 60.93541275 -56.34319824 60.91142914 -57.5625 60.88671875 C-60.07550186 60.85459912 -62.58852417 60.82404802 -65.1015625 60.79492188 C-69.05882418 60.74546841 -73.01500811 60.68717803 -76.97167969 60.60229492 C-80.79379712 60.52363782 -84.61475785 60.4831392 -88.4375 60.44921875 C-89.62093994 60.41511398 -90.80437988 60.38100922 -92.02368164 60.34587097 C-97.72516107 60.13464941 -97.72516107 60.13464941 -102.78833008 62.28994751 C-104.31731411 64.0585549 -104.31731411 64.0585549 -106 67 C-107.63072616 68.37705764 -109.2866438 69.72722111 -111 71 C-113.95409701 69.62845496 -116.44008376 68.01136276 -119 66 C-118.25327632 60.26759333 -114.07007089 56.08569463 -109.78320312 52.57128906 C-100.14190534 46.30407102 -85.38153406 48.95373004 -74.25 49.375 C-70.07895277 49.52455562 -65.90995725 49.65513865 -61.73651123 49.71157837 C-59.15201036 49.75184016 -56.56768262 49.83816683 -53.9866333 49.97763062 C-48.83935436 50.062646 -45.41160544 50.11431057 -41.27380371 46.84796143 C-39.0016405 44.3283982 -37.00119914 41.73636266 -35 39 C-33.81742894 37.76644231 -32.61393267 36.55193871 -31.375 35.375 C-29.04435776 33.08692656 -26.87132184 30.73325352 -24.75 28.25 C-21.72697785 24.77659532 -18.62583517 21.38449087 -15.4375 18.0625 C-14.54933594 17.12535156 -13.66117188 16.18820312 -12.74609375 15.22265625 C-9.71158154 12.76655747 -7.84550276 12.26540181 -4 12 C-8.27430169 7.22283929 -11.69736946 5.36043937 -18.078125 4.6640625 C-25.66375295 4.57064344 -31.18944016 5.72619807 -38 9 C-38.99 9.33 -39.98 9.66 -41 10 C-39.80929241 12.92264591 -38.7076823 14.26512535 -36.3125 16.4375 C-34 19 -34 19 -34.0625 21.6875 C-35 24 -35 24 -37 26 C-40.19674245 25.79595261 -42.30589597 25.53214642 -44.875 23.5625 C-46 22 -46 22 -46 20 C-54.65441444 16.41002068 -62.64919065 15.40748288 -71.5 18.9375 C-73.00306562 19.61827161 -74.50354463 20.30481831 -76 21 C-76.99 21.33 -77.98 21.66 -79 22 C-79 22.99 -79 23.98 -79 25 C-78.360625 25.309375 -77.72125 25.61875 -77.0625 25.9375 C-75 27 -75 27 -74 28 C-72.62062729 28.12018813 -71.23580295 28.17943151 -69.8515625 28.2109375 C-69.01109375 28.23929687 -68.170625 28.26765625 -67.3046875 28.296875 C-65.52624646 28.34872459 -63.74756974 28.39306474 -61.96875 28.4296875 C-60.70417969 28.47609375 -60.70417969 28.47609375 -59.4140625 28.5234375 C-58.6401416 28.54325684 -57.8662207 28.56307617 -57.06884766 28.58349609 C-54.47937022 29.10481407 -53.54464292 29.87806001 -52 32 C-52.1875 35.125 -52.1875 35.125 -53 38 C-56.82488319 39.91244159 -61.41639545 39.35855464 -65.625 39.4375 C-67.08486328 39.50614258 -67.08486328 39.50614258 -68.57421875 39.57617188 C-75.11906821 39.6774717 -78.17891694 38.60772175 -83.10058594 34.36010742 C-86.34035049 32.04021947 -89.45389866 32.2218266 -93.3125 32.4375 C-94.42226196 32.47302979 -94.42226196 32.47302979 -95.55444336 32.50927734 C-105.42253758 32.96695923 -113.76085373 34.95094072 -121 42 C-124.8492872 46.29508438 -127.58192905 50.32771621 -129 56 C-132.82097239 55.46930939 -135.06171403 54.50298434 -138 52 C-138 44.46763676 -133.79484743 39.51813797 -129 34 C-120.23961679 25.47511096 -110.16161389 22.02968413 -98.125 21.9375 C-93.10632188 21.68858808 -93.10632188 21.68858808 -88.84765625 19.33203125 C-87.73925937 17.94197116 -86.66956014 16.52017565 -85.640625 15.0703125 C-81.72072735 10.12377499 -74.96827711 7.55348617 -69 6 C-67.0281142 6.06205935 -65.05503152 6.12867846 -63.08813477 6.28198242 C-53.77607662 6.95535977 -49.08750192 4.87324603 -41.8984375 -0.796875 C-30.06383378 -9.7924498 -11.81342231 -7.87561488 0 0 Z M9 8 C8.34 8.99 7.68 9.98 7 11 C7.99 12.485 7.99 12.485 9 14 C11.84432012 14.19528111 14.45552512 14.20670097 17.2890625 14.07421875 C18.10748627 14.04777786 18.92591003 14.02133698 19.76913452 13.99409485 C22.38848582 13.90617713 25.00647425 13.79708482 27.625 13.6875 C29.39838834 13.62425713 31.17182633 13.56239055 32.9453125 13.50195312 C37.29761239 13.35061192 41.64880633 13.18027366 46 13 C39.77357111 6.62665755 34.00445825 3.83607373 25 3.5 C19.21089089 3.70194567 14.00234027 5.02051845 9 8 Z M-21 70 C-21 70.66 -21 71.32 -21 72 C-19.221698 72.01401855 -19.221698 72.01401855 -17.4074707 72.02832031 C-12.99953955 72.06825998 -8.59230342 72.13402981 -4.18481445 72.20751953 C-2.27898095 72.2357061 -0.37303105 72.25693216 1.53295898 72.27099609 C4.27648406 72.29245783 7.01861313 72.33912365 9.76171875 72.390625 C10.61086349 72.39185364 11.46000824 72.39308228 12.33488464 72.39434814 C17.49974665 72.52158118 20.23169025 73.14519707 24 77 C25.24338864 78.322052 26.45448187 79.67551618 27.625 81.0625 C28.74331784 82.38069818 29.8679469 83.69357854 31 85 C31.48855469 85.59425781 31.97710938 86.18851563 32.48046875 86.80078125 C32.98191406 87.19652344 33.48335937 87.59226562 34 88 C35.94814244 87.53772891 37.8952486 87.06400958 39.81640625 86.5 C44.7566418 85.36878327 48.83927005 86.38678418 53.3125 88.75 C56.18550183 91.15530386 57.57218817 92.54319241 59 96 C59.10795376 97.60269808 59.18854695 99.20734622 59.25 100.8125 C59.66104698 105.8037848 61.02593757 108.20917453 64.67089844 111.59887695 C67 114 67 114 69.18652344 117.25268555 C72.89271399 122.3902971 76.65606751 126.36957836 83.08288574 127.58120728 C93.55900509 128.28184714 104.17776889 127.46036217 114.640625 126.70263672 C139.59098526 124.97647046 139.59098526 124.97647046 148.6484375 132.7421875 C154.01178869 137.63775346 158.6597855 143.18855779 163 149 C166.10021321 147.47639094 169.05162229 145.80178638 172 144 C170.14382016 135.02846413 164.53726574 126.35634872 157 121 C153.04974809 119.92082822 149.91130771 119.72395415 145.8359375 119.921875 C144.90007812 119.94765625 143.96421875 119.9734375 143 120 C141 118 141 118 140.8125 115.4375 C141 113 141 113 142 112 C158.30849531 110.13940778 158.30849531 110.13940778 164.2265625 114.23046875 C166.38506584 116.72294248 168.22651516 119.22583377 170 122 C170.33 122 170.66 122 171 122 C171.60461383 114.50278851 170.4023295 109.19898426 166 103 C161.41593758 98.67012077 157.39817284 95.93236307 151.0625 95.71875 C150.08539062 95.68136719 149.10828125 95.64398438 148.1015625 95.60546875 C147.07804688 95.57066406 146.05453125 95.53585937 145 95.5 C142.97901972 95.43127649 140.95817011 95.35855796 138.9375 95.28125 C138.03902344 95.25095703 137.14054688 95.22066406 136.21484375 95.18945312 C134 95 134 95 132 94 C131.95745644 92.00045254 131.95919217 89.99958364 132 88 C134.05922402 85.94077598 138.21708124 86.58572421 141.0625 86.4375 C141.82111328 86.39431641 142.57972656 86.35113281 143.36132812 86.30664062 C145.24065438 86.20026367 147.12030244 86.09960066 149 86 C149.60871669 76.80161442 148.17462062 71.52142937 142.9375 64.0625 C141.08657626 61.76500731 141.08657626 61.76500731 138 61 C137.61231445 62.27762207 137.61231445 62.27762207 137.21679688 63.58105469 C135.42406985 67.57904631 133.73294928 70.65546374 130 73 C121.16826832 75.3157064 111.54437618 74.445111 102.5 74.25 C99.93491555 74.23801968 97.36979974 74.23145055 94.8046875 74.23046875 C88.53473926 74.21629458 82.26846319 74.13435433 76 74 C77.7389634 77.77916846 79.83036521 79.83974686 83 82.5625 C85.81722892 84.99072202 87.92978755 86.89468133 90 90 C92.54203398 89.52925297 94.0146471 88.98923007 96.125 87.4375 C100.39157936 85.30421032 104.3160885 85.45116286 109 86 C113.73829769 87.66717882 116.2011938 89.85362045 119 94 C120.59975055 98.79925166 120.97565788 103.46678963 119.12890625 108.26171875 C117.09775272 111.86451894 115.31923432 113.79343662 111.8125 116.0625 C105.46371762 117.62367599 100.37921552 117.3217864 94.625 114.125 C92.10528812 111.70572906 91.43006246 109.40440893 90.49438477 106.08276367 C87.84535536 98.57883681 82.80788383 93.25247703 77.46484375 87.55078125 C76.93850405 86.98717581 76.41216434 86.42357037 75.86987495 85.84288597 C73.07052802 82.85747428 70.24657026 79.8976668 67.40405273 76.95336914 C65.09427572 74.55078389 62.84564647 72.10875171 60.63745117 69.61254883 C50.42472417 58.10137488 40.68033952 47.15432971 24.56086636 45.85114574 C22.22884572 45.74849641 19.91220313 45.72364845 17.578125 45.73828125 C16.47789411 45.73229636 16.47789411 45.73229636 15.35543633 45.72619057 C-1.27154163 45.92595136 -12.23411151 56.54932368 -21 70 Z M39.75 96.625 C37.77243852 98.93109505 37.77243852 98.93109505 37.5 102.0625 C37.73832263 105.04532623 37.73832263 105.04532623 39.6875 106.875 C42.49291462 108.2397963 43.92535288 108.61492942 47 108 C49.50397498 105.91170257 49.50397498 105.91170257 51 103 C51.16977494 100.34872531 51.16977494 100.34872531 50 98 C48.26961928 96.09798258 48.26961928 96.09798258 46 95 C42.07787775 94.60967296 42.07787775 94.60967296 39.75 96.625 Z M99 96.625 C97.65819116 99.81179601 98.07052796 101.71109893 99 105 C100.93731528 107.36410488 100.93731528 107.36410488 104.4375 107.3125 C107.85653666 107.26665828 107.85653666 107.26665828 109.9375 105.875 C111.50422245 103.11019567 111.38976435 101.11811483 111 98 C110.06402685 95.98048938 110.06402685 95.98048938 108 95 C103.12781356 94.35387532 103.12781356 94.35387532 99 96.625 Z M-25.9375 122.125 C-27.50422245 124.88980433 -27.38976435 126.88188517 -27 130 C-26.06402685 132.01951062 -26.06402685 132.01951062 -24 133 C-20.56141649 133.36841966 -18.09868019 133.58367385 -15 131.9375 C-13.38352178 128.80557344 -14.21334704 126.32814714 -15 123 C-16.93731528 120.63589512 -16.93731528 120.63589512 -20.4375 120.6875 C-23.85653666 120.73334172 -23.85653666 120.73334172 -25.9375 122.125 Z M171.125 155.125 C169.44531955 157.92446741 169.54257723 159.79804064 170 163 C171.41666667 165.58333333 171.41666667 165.58333333 174 167 C179.05692899 166.85718492 179.05692899 166.85718492 183 164 C183.46879799 160.40588208 183.44361448 158.64835963 181.375 155.625 C177.89154152 153.24158104 174.81595907 152.91042456 171.125 155.125 Z M127.6875 158.5625 C125.63886989 161.00322397 125.63886989 161.00322397 126.125 164.625 C126.70740714 168.04542055 126.70740714 168.04542055 129 170 C132.61649298 170.47171648 134.37312512 170.41791658 137.4375 168.375 C139.28053342 166.04740442 139.28053342 166.04740442 139 162.9375 C137.86407138 159.60070968 137.10583819 158.59728821 134 157 C130.08724445 156.62676173 130.08724445 156.62676173 127.6875 158.5625 Z M61 188 C61.41010315 188.47707901 61.8202063 188.95415802 62.24273682 189.44569397 C62.78170593 190.07342209 63.32067505 190.70115021 63.87597656 191.34790039 C64.40982971 191.9693544 64.94368286 192.59080841 65.49371338 193.23109436 C66.67434363 194.61756588 67.83356836 196.02226985 68.984375 197.43359375 C72.64579856 201.62735031 72.64579856 201.62735031 77.734375 203.50390625 C80.20832329 203.50041197 82.55430473 203.36084029 85 203 C85.2784375 202.36449219 85.556875 201.72898437 85.84375 201.07421875 C87.40115231 198.28036529 89.0251471 197.96682719 92 197 C92.66 196.67 93.32 196.34 94 196 C100.86754198 195.2341498 105.41447624 195.89634989 111 200 C113.10033242 202.24518294 113.9209691 203.73859009 114.8125 206.6875 C115.4003125 207.8321875 115.4003125 207.8321875 116 209 C119.05272465 209.89830839 119.05272465 209.89830839 122 210 C123.17659761 203.00093902 123.17659761 203.00093902 121.9375 196.1875 C121.298125 195.465625 120.65875 194.74375 120 194 C119.22124512 192.97696777 118.44249023 191.95393555 117.64013672 190.89990234 C113.8946684 187.20012939 110.317795 187.31805114 105.23953247 187.32022095 C104.11118988 187.35118866 102.98284729 187.38215637 101.8203125 187.4140625 C100.06846146 187.42679703 100.06846146 187.42679703 98.28121948 187.43978882 C94.56153002 187.47329841 90.84403106 187.54858155 87.125 187.625 C84.5989897 187.65510238 82.07294533 187.68247769 79.546875 187.70703125 C73.36383959 187.77308213 67.1820763 187.87340948 61 188 Z M94 206.625 C92.65819116 209.81179601 93.07052796 211.71109893 94 215 C95.93731528 217.36410488 95.93731528 217.36410488 99.4375 217.3125 C102.85653666 217.26665828 102.85653666 217.26665828 104.9375 215.875 C106.50422245 213.11019567 106.38976435 211.11811483 106 208 C105.06402685 205.98048938 105.06402685 205.98048938 103 205 C98.12781356 204.35387532 98.12781356 204.35387532 94 206.625 Z " fill="#A8D0C2" transform="translate(648,368)"/>
<path d="M0 0 C13 0 13 0 16.0703125 2.1328125 C16.74835938 3.12023437 17.42640625 4.10765625 18.125 5.125 C18.5178418 5.66560059 18.91068359 6.20620117 19.31542969 6.76318359 C20.14889432 7.91026474 20.96647527 9.06903917 21.76855469 10.23828125 C23.38446951 12.55002617 25.13412219 14.73725539 26.89794922 16.93701172 C29.29747792 19.93273967 31.64389795 22.97008277 34 26 C34.55236328 26.70995117 35.10472656 27.41990234 35.67382812 28.15136719 C38.05031558 31.20628206 40.42626253 34.26161535 42.80102539 37.31787109 C47.23243004 43.01947 51.68398651 48.70469578 56.15039062 54.37890625 C59.04638744 58.05823375 61.93946345 61.73985145 64.83203125 65.421875 C65.33271118 66.05915527 65.83339111 66.69643555 66.34924316 67.35302734 C67.56618779 68.90199805 68.78309761 70.45099611 70 72 C69.99777939 71.1127272 69.99555878 70.22545441 69.99327087 69.31129456 C69.97327039 60.96755343 69.95802711 52.62382031 69.94818783 44.28006077 C69.94295939 39.99000085 69.93586247 35.69996067 69.92456055 31.40991211 C69.91373025 27.273206 69.90772286 23.13651892 69.90512276 18.99979973 C69.90326876 17.41807696 69.89964864 15.83635529 69.89426994 14.25464058 C69.8870576 12.04677162 69.88600914 9.83898227 69.88647461 7.63110352 C69.884254 6.37201675 69.88203339 5.11292999 69.87974548 3.81568909 C70 1 70 1 71 0 C73.51136104 -0.09975032 75.98903415 -0.13882183 78.5 -0.125 C79.20253906 -0.12886719 79.90507812 -0.13273438 80.62890625 -0.13671875 C85.87338622 -0.12661378 85.87338622 -0.12661378 87 1 C87.09534958 4.13559886 87.12550879 7.24913613 87.11352539 10.38500977 C87.11367142 11.37026642 87.11381744 12.35552307 87.1139679 13.37063599 C87.11326832 16.64424807 87.10547385 19.91780404 87.09765625 23.19140625 C87.09579223 25.45442168 87.09436825 27.71743751 87.09336853 29.98045349 C87.0895421 35.94978948 87.07971075 41.91910132 87.06866455 47.88842773 C87.05845312 53.97444329 87.05387149 60.06046273 87.04882812 66.14648438 C87.03808859 78.09766689 87.02101068 90.04883144 87 102 C84.73444749 102.05951028 82.468449 102.10222824 80.20239258 102.13769531 C78.9405867 102.163255 77.67878082 102.1888147 76.3787384 102.21514893 C73 102 73 102 69.76171875 99.796875 C69.07722656 98.79140625 68.39273438 97.7859375 67.6875 96.75 C67.29691406 96.20786865 66.90632813 95.6657373 66.50390625 95.10717773 C65.69657635 93.98098508 64.90779301 92.84126376 64.13818359 91.68896484 C62.36901895 89.06367934 60.42306384 86.57624313 58.5 84.0625 C57.76265625 83.06863281 57.0253125 82.07476563 56.265625 81.05078125 C50.25841433 72.96176136 44.06810476 65.04587315 37.6875 57.25 C32.95596981 51.46080868 28.31122478 45.6119587 23.75 39.6875 C23.18885498 38.96401367 22.62770996 38.24052734 22.04956055 37.49511719 C21.53304932 36.8199707 21.01653809 36.14482422 20.484375 35.44921875 C20.02772461 34.85455811 19.57107422 34.25989746 19.10058594 33.6472168 C18 32 18 32 17 29 C16.34 29 15.68 29 15 29 C15.16226074 30.18335938 15.32452148 31.36671875 15.49169922 32.5859375 C16.22787221 39.25321357 16.14426881 45.92567855 16.1328125 52.625 C16.13348727 54.02221697 16.13445873 55.41943382 16.13571167 56.81665039 C16.1371766 59.7246209 16.13507051 62.63256046 16.13037109 65.54052734 C16.12463178 69.27425554 16.12798669 73.00791251 16.13394356 76.74163818 C16.13754565 79.617132 16.13641296 82.49260871 16.13381577 85.36810303 C16.13314771 86.74607349 16.1339707 88.1240455 16.13629532 89.50201416 C16.13882058 91.41670707 16.13429267 93.33140544 16.12939453 95.24609375 C16.12859894 96.33591553 16.12780334 97.4257373 16.12698364 98.54858398 C16 101 16 101 15 102 C10.05 102 5.1 102 0 102 C0 68.34 0 34.68 0 0 Z " fill="#191D23" transform="translate(401,853)"/>
<path d="M0 0 C1.0725 0.01417969 2.145 0.02835938 3.25 0.04296875 C4.3225 0.04941406 5.395 0.05585937 6.5 0.0625 C9.25 0.23046875 9.25 0.23046875 11.25 1.23046875 C12.31607624 3.36833745 13.27518521 5.48454481 14.19921875 7.68359375 C14.48863342 8.35855392 14.7780481 9.0335141 15.07623291 9.72892761 C16.03711628 11.97647765 16.98761578 14.22825018 17.9375 16.48046875 C18.60666778 18.05484728 19.27602287 19.62914621 19.94555664 21.20336914 C26.40238615 36.43049302 32.62847428 51.75149736 38.78692627 67.10131836 C40.50071368 71.3726152 42.22793533 75.63805736 43.96875 79.8984375 C44.70835439 81.71743936 45.44793991 83.53644888 46.1875 85.35546875 C46.51161865 86.14236084 46.8357373 86.92925293 47.16967773 87.73999023 C48.37676073 90.72831952 49.25 92.97461401 49.25 96.23046875 C46.98044814 96.45232719 44.70926245 96.6575239 42.4375 96.85546875 C41.17292969 96.97148438 39.90835938 97.0875 38.60546875 97.20703125 C35.25 97.23046875 35.25 97.23046875 32.25 95.23046875 C31.17504883 93.015625 31.17504883 93.015625 30.20703125 90.29296875 C29.68012695 88.82730469 29.68012695 88.82730469 29.14257812 87.33203125 C28.78615234 86.30851563 28.42972656 85.285 28.0625 84.23046875 C27.69447266 83.20695313 27.32644531 82.1834375 26.94726562 81.12890625 C24.25 73.54253392 24.25 73.54253392 24.25 71.23046875 C10.39 71.56046875 -3.47 71.89046875 -17.75 72.23046875 C-19.73 77.84046875 -21.71 83.45046875 -23.75 89.23046875 C-24.74 91.54046875 -25.73 93.85046875 -26.75 96.23046875 C-32.03 96.23046875 -37.31 96.23046875 -42.75 96.23046875 C-41.92944929 91.3071645 -40.77854188 87.36021228 -38.890625 82.8359375 C-38.59368744 82.11108154 -38.29674988 81.38622559 -37.99081421 80.6394043 C-37.00073719 78.22936634 -36.00085182 75.82355025 -35 73.41796875 C-34.29856326 71.72115223 -33.59723098 70.02429253 -32.89599609 68.32739258 C-27.27515214 54.76221962 -21.55046532 41.24018707 -15.78942871 27.73403931 C-14.84647092 25.52331314 -13.90482022 23.31202899 -12.96447754 21.10018921 C-11.6403666 17.98901991 -10.30957987 14.88079935 -8.9765625 11.7734375 C-8.5782724 10.83564453 -8.1799823 9.89785156 -7.7696228 8.93164062 C-7.40043732 8.07530029 -7.03125183 7.21895996 -6.65087891 6.33666992 C-6.33051666 5.5882634 -6.01015442 4.83985687 -5.68008423 4.06877136 C-4.18072298 1.10529815 -3.35544271 0.28120898 0 0 Z M2.25 19.23046875 C2.03907715 19.78806885 1.8281543 20.34566895 1.61083984 20.92016602 C0.61699639 23.54498044 -0.3787517 26.16906613 -1.375 28.79296875 C-1.73529297 29.74284668 -2.09558594 30.69272461 -2.46679688 31.67138672 C-5.11339008 38.62396365 -7.86727234 45.52368348 -10.71875 52.39453125 C-11.92087153 55.19742914 -11.92087153 55.19742914 -11.75 58.23046875 C-1.85 58.23046875 8.05 58.23046875 18.25 58.23046875 C17.41340464 53.21089657 16.18737541 49.07477221 14.30859375 44.42578125 C14.02146011 43.70180145 13.73432648 42.97782166 13.43849182 42.23190308 C12.52704996 39.93750001 11.60742093 37.64648354 10.6875 35.35546875 C10.06521005 33.79318579 9.44345955 32.23068784 8.82226562 30.66796875 C7.30440774 26.8529528 5.77920242 23.04095076 4.25 19.23046875 C3.59 19.23046875 2.93 19.23046875 2.25 19.23046875 Z " fill="#A7D0C2" transform="translate(738.75,633.76953125)"/>
<path d="M0 0 C8.08934724 6.91460748 12.02125778 16.46257779 13.0625 26.875 C13.18130784 30.21152022 13.27960352 33.54182235 13.0625 36.875 C12.0625 37.875 12.0625 37.875 9.77830505 37.99525452 C8.76792679 37.99303391 7.75754852 37.99081329 6.71655273 37.98852539 C5.5754454 37.98844986 4.43433807 37.98837433 3.25865173 37.98829651 C2.0170076 37.98313522 0.77536346 37.97797394 -0.50390625 37.97265625 C-2.39954567 37.97053383 -2.39954567 37.97053383 -4.33348083 37.96836853 C-7.69874889 37.96370582 -11.0639499 37.9547148 -14.42919922 37.94366455 C-17.8609967 37.93344846 -21.29280109 37.92887049 -24.72460938 37.92382812 C-31.46225824 37.9127738 -38.19987525 37.8960171 -44.9375 37.875 C-44.4774133 39.48313944 -44.01143475 41.08959402 -43.54296875 42.6953125 C-43.28410889 43.59008301 -43.02524902 44.48485352 -42.75854492 45.40673828 C-41.17875838 50.15596278 -38.61701429 52.68367749 -34.375 55.125 C-26.74727102 58.61926691 -18.74977001 58.6092945 -10.9375 55.875 C-8.50819117 54.65536749 -6.25904322 53.30364198 -3.9375 51.875 C-2.61103844 51.1947633 -1.28141123 50.52007739 0.0625 49.875 C2.72916667 52.54166667 5.39583333 55.20833333 8.0625 57.875 C5.59493826 63.57126193 0.96058997 66.48724393 -4.5234375 69.11328125 C-15.76232042 73.5412079 -27.21208812 74.12019661 -38.63671875 69.87109375 C-49.59902352 64.78445004 -55.38622429 58.04058643 -59.9375 46.875 C-63.09980248 36.065372 -62.25921002 21.73679389 -56.9375 11.875 C-56.525 11.07964844 -56.1125 10.28429687 -55.6875 9.46484375 C-51.07893351 1.6224252 -44.21894629 -3.37687814 -35.5625 -6.0625 C-23.21303751 -8.83766011 -10.5136268 -7.46185258 0 0 Z M-40.75 13.625 C-43.40130895 17.56408758 -45.9375 21.98814948 -45.9375 26.875 C-32.0775 26.875 -18.2175 26.875 -3.9375 26.875 C-2.63489321 21.66457283 -4.04143676 19.79301935 -6.4765625 15.21875 C-9.35104438 10.60728175 -12.92047198 8.59801972 -17.9375 6.875 C-27.27540493 5.76733128 -33.99488991 7.02000347 -40.75 13.625 Z " fill="#1B1E24" transform="translate(567.9375,884.125)"/>
<path d="M0 0 C0.67796631 0.1652417 1.35593262 0.3304834 2.05444336 0.50073242 C6.00440801 1.54148566 9.23825678 2.9056981 12.625 5.1875 C11.90491594 9.79603797 10.31204061 13.85987409 8.625 18.1875 C5.15325971 17.38156029 1.93890458 16.20074398 -1.375 14.90625 C-9.63834989 11.93660863 -19.1662911 12.13309669 -27.375 15.1875 C-27.643125 16.404375 -27.91125 17.62125 -28.1875 18.875 C-28.33832031 19.55949219 -28.48914063 20.24398437 -28.64453125 20.94921875 C-28.31272282 23.70467135 -27.33159432 25.15207453 -25.28979492 27.01147461 C-19.9763477 30.27487831 -13.16890091 31.04357795 -7.1640625 32.41601562 C1.06038813 34.42486132 8.67728899 36.85804945 13.625 44.125 C16.277034 52.24685413 15.79624008 58.75817024 12.0625 66.375 C6.64037308 72.6313003 -0.18185726 76.55179649 -8.50610352 77.40625 C-21.80926858 78.09859731 -33.50685088 76.59568998 -45.08203125 69.53125 C-46.375 68.1875 -46.375 68.1875 -46.375 64.1875 C-45.5 62.046875 -45.5 62.046875 -44.375 59.9375 C-44.00375 59.23109375 -43.6325 58.5246875 -43.25 57.796875 C-42.96125 57.26578125 -42.6725 56.7346875 -42.375 56.1875 C-39.04673018 56.60353373 -36.49120119 57.57111317 -33.5625 59.125 C-23.5307496 64.27188687 -13.09061295 64.42240202 -2.375 61.1875 C-2.09751758 59.77595901 -1.85406484 58.35770201 -1.625 56.9375 C-1.48578125 56.14859375 -1.3465625 55.3596875 -1.203125 54.546875 C-1.1588182 52.05830785 -1.1588182 52.05830785 -3.0234375 50.14916992 C-5.75095227 47.87388118 -7.72969164 47.25506774 -11.171875 46.44140625 C-12.2959375 46.16103516 -13.42 45.88066406 -14.578125 45.59179688 C-16.92703888 45.03431787 -19.27599663 44.47702368 -21.625 43.91992188 C-30.53649531 41.69713452 -38.12788669 39.16311222 -43.375 31.1875 C-45.46485698 24.91792905 -45.55582397 16.89115986 -42.9375 10.75 C-39.38052946 4.74126048 -32.73806415 1.49759136 -26.375 -0.8125 C-17.29581795 -2.62833641 -8.92447042 -2.19571113 0 0 Z " fill="#191C22" transform="translate(843.375,878.8125)"/>
<path d="M0 0 C13.79079498 -1.50627615 13.79079498 -1.50627615 18.4921875 1.69921875 C20.60633377 4.35286707 22.29152836 7.06712369 24 10 C25.31645002 12.01964692 26.65942666 14.01985455 28.00634766 16.01928711 C28.9086509 17.36630385 29.7992947 18.72121473 30.67724609 20.08422852 C32.79071985 23.60600746 32.79071985 23.60600746 36 26 C36.4031543 24.90401489 36.4031543 24.90401489 36.81445312 23.78588867 C37.97313843 21.06312137 39.29364641 18.85794263 40.96875 16.42578125 C41.53980469 15.59369141 42.11085938 14.76160156 42.69921875 13.90429688 C43.29347656 13.04900391 43.88773438 12.19371094 44.5 11.3125 C45.09425781 10.44560547 45.68851563 9.57871094 46.30078125 8.68554688 C50.71152491 2.28847509 50.71152491 2.28847509 53 0 C55.74485593 -0.14507695 58.38480543 -0.18652423 61.125 -0.125 C61.87910156 -0.11597656 62.63320313 -0.10695313 63.41015625 -0.09765625 C65.27357254 -0.0740687 67.13682593 -0.03819719 69 0 C67.53054753 4.26615234 65.28100972 7.65233767 62.625 11.25 C61.73556009 12.48168636 60.846243 13.71346142 59.95703125 14.9453125 C58.42598812 17.05095262 56.88831612 19.1511694 55.34130859 21.24511719 C53.65435631 23.53079015 51.98304511 25.82731988 50.3125 28.125 C49.77125488 28.84719727 49.23000977 29.56939453 48.67236328 30.31347656 C48.17849121 30.99635742 47.68461914 31.67923828 47.17578125 32.3828125 C46.73145752 32.98496582 46.28713379 33.58711914 45.8293457 34.20751953 C44.82281486 35.97813146 44.82281486 35.97813146 45.22021484 38.0065918 C46.03901869 40.09974566 46.98569297 41.69092406 48.30078125 43.51171875 C48.77805664 44.17929199 49.25533203 44.84686523 49.74707031 45.53466797 C50.26366211 46.24510254 50.78025391 46.95553711 51.3125 47.6875 C51.84069336 48.42629395 52.36888672 49.16508789 52.91308594 49.92626953 C55.17865804 53.09445734 57.45887039 56.25194559 59.74169922 59.40771484 C61.41663645 61.72623805 63.08342911 64.05045957 64.75 66.375 C65.27505127 67.09389404 65.80010254 67.81278809 66.34106445 68.5534668 C66.82148193 69.22418213 67.30189941 69.89489746 67.796875 70.5859375 C68.22323242 71.1742334 68.64958984 71.7625293 69.08886719 72.36865234 C70 74 70 74 70 77 C64.29960337 78.16738661 58.56971515 79.13321054 53 77 C47.88158821 72.52264914 44.71467665 66.31318689 41.43994141 60.44140625 C39.25421086 56.73552197 36.66889063 53.3680118 34 50 C32.69593894 51.84567873 31.3924708 53.69175402 30.09106445 55.53930664 C28.9836251 57.10358721 27.86878827 58.66265548 26.74682617 60.21655273 C24.36209972 63.53683373 22.14243422 66.7281089 20.2421875 70.35546875 C18.69299621 73.28877357 17.70367382 75.05615176 15 77 C9.38789947 78.14972069 3.65146257 77.57213907 -2 77 C-0.36266192 71.85408032 2.76922019 67.91460909 5.9375 63.625 C6.50927979 62.83714111 7.08105957 62.04928223 7.67016602 61.23754883 C10.51306358 57.33038101 13.39815633 53.46633874 16.375 49.66015625 C16.89199463 48.98839355 17.40898926 48.31663086 17.94165039 47.62451172 C18.92010471 46.35748764 19.9136372 45.10193025 20.92358398 43.85986328 C22.4340864 41.97755335 22.4340864 41.97755335 24 39 C22.97446842 35.53683199 21.31316487 32.73769387 19.27734375 29.77734375 C18.74262451 28.99681641 18.20790527 28.21628906 17.65698242 27.41210938 C16.80583862 26.18717773 16.80583862 26.18717773 15.9375 24.9375 C15.35911377 24.09638672 14.78072754 23.25527344 14.18481445 22.38867188 C10.13460398 16.53294589 5.92900463 10.83306868 1.51171875 5.25 C0 3 0 3 0 0 Z " fill="#191D23" transform="translate(588,878)"/>
<path d="M0 0 C4.95 0 9.9 0 15 0 C15 6.27 15 12.54 15 19 C21.20792914 18.96041973 21.20792914 18.96041973 27.41577148 18.90991211 C28.18477783 18.90741455 28.95378418 18.90491699 29.74609375 18.90234375 C30.53685303 18.89710693 31.3276123 18.89187012 32.14233398 18.88647461 C34 19 34 19 35 20 C35.09873816 21.99799572 35.12971799 23.99957158 35.125 26 C35.12886719 27.6396875 35.12886719 27.6396875 35.1328125 29.3125 C35 32 35 32 34 33 C32.58429877 33.08651611 31.164405 33.10704904 29.74609375 33.09765625 C28.89208984 33.09443359 28.03808594 33.09121094 27.15820312 33.08789062 C26.26037109 33.07951172 25.36253906 33.07113281 24.4375 33.0625 C23.53580078 33.05798828 22.63410156 33.05347656 21.70507812 33.04882812 C19.46998686 33.03700225 17.23502563 33.0205222 15 33 C15.11840302 39.17485057 15.24266228 45.34954529 15.37231445 51.52416992 C15.41558635 53.62407235 15.45726683 55.72400821 15.49731445 57.82397461 C15.55520477 60.84499173 15.6188451 63.86584179 15.68359375 66.88671875 C15.70030624 67.82335861 15.71701874 68.75999847 15.73423767 69.72502136 C15.82939451 73.92597586 15.94717619 77.90485257 17 82 C22.52967941 82.71033431 27.49983036 83.30267176 33 82 C36.93764434 88.08545035 36.93764434 88.08545035 37.1875 91.75 C35.76862996 94.43838534 34.33934077 95.46509773 31.48828125 96.4921875 C23.63373251 98.09515663 14.52843244 98.53710032 7.51171875 94.19921875 C3.21014322 90.7868578 1.34264276 87.24314595 0 82 C-0.2686009 78.15696297 -0.23271622 74.32732137 -0.1953125 70.4765625 C-0.1924826 69.37524994 -0.18965271 68.27393738 -0.18673706 67.13925171 C-0.17557478 63.63438892 -0.15047711 60.12978508 -0.125 56.625 C-0.11496511 54.24349328 -0.10584015 51.86198255 -0.09765625 49.48046875 C-0.07564832 43.65354661 -0.04114537 37.82681716 0 32 C-5.445 32.495 -5.445 32.495 -11 33 C-12.84685787 29.30628427 -13.25768025 28.17241362 -13.1875 24.3125 C-13.18105469 23.52488281 -13.17460938 22.73726562 -13.16796875 21.92578125 C-13 20 -13 20 -12 19 C-7.99779347 18.85644883 -4.00558317 18.95783597 0 19 C0 12.73 0 6.46 0 0 Z " fill="#181C22" transform="translate(675,859)"/>
<path d="M0 0 C2.47923801 -0.02685095 4.9581884 -0.04676547 7.4375 -0.0625 C8.14455078 -0.07087891 8.85160156 -0.07925781 9.58007812 -0.08789062 C11.38693559 -0.09653588 13.19387603 -0.05220011 15 0 C16.98590579 1.98590579 16.15715888 5.9318393 16.16113281 8.64990234 C16.16858017 9.85256744 16.16858017 9.85256744 16.17617798 11.07952881 C16.19085175 13.74834031 16.197614 16.41709217 16.203125 19.0859375 C16.20887691 20.94145713 16.21463464 22.79697674 16.22039795 24.65249634 C16.23092596 28.55495481 16.23675526 32.4573926 16.24023438 36.35986328 C16.24569026 41.33724587 16.26964783 46.31435088 16.29820633 51.29164696 C16.31693349 55.1317725 16.32204388 58.97183295 16.32357025 62.81200027 C16.32658007 64.64504115 16.33455152 66.47808133 16.34775543 68.31107712 C16.51703313 93.64147733 16.51703313 93.64147733 8.64453125 101.62890625 C2.93253609 106.3911635 -2.60699558 106.45461787 -9.8203125 106.3046875 C-14.03311803 105.90100343 -17.18490377 104.7953394 -21 103 C-20.40895235 98.15340923 -19.02055843 94.39251833 -17 90 C-16.43796875 90.16371094 -15.8759375 90.32742188 -15.296875 90.49609375 C-12.86940944 91.02864997 -10.73110319 91.09898681 -8.25 91.0625 C-7.05117188 91.04896484 -7.05117188 91.04896484 -5.828125 91.03515625 C-5.22484375 91.02355469 -4.6215625 91.01195312 -4 91 C-1.10465984 86.1453496 -0.55735764 82.04932895 -0.56762695 76.51611328 C-0.5574353 75.68618362 -0.54724365 74.85625397 -0.53674316 74.00117493 C-0.50669171 71.27415141 -0.4973593 68.54747962 -0.48828125 65.8203125 C-0.47142874 63.92315511 -0.45327772 62.02600884 -0.43388367 60.12887573 C-0.38643975 55.14769976 -0.35659408 50.16656891 -0.33044434 45.1852417 C-0.30061054 40.09736217 -0.25408987 35.00963801 -0.20898438 29.921875 C-0.12301505 19.94799804 -0.05564139 9.97408904 0 0 Z " fill="#191D23" transform="translate(764,878)"/>
<path d="M0 0 C4.62 0 9.24 0 14 0 C15.66770923 3.33541845 15.13801746 7.08116599 15.12939453 10.74829102 C15.13114685 11.65405884 15.13289917 12.55982666 15.13470459 13.49304199 C15.13911758 16.49668271 15.13618729 19.5002649 15.1328125 22.50390625 C15.13348564 24.58373526 15.13445575 26.6635642 15.13571167 28.74339294 C15.13718784 33.10554757 15.13503643 37.46768174 15.13037109 41.82983398 C15.12467032 47.43470923 15.12795553 53.03953664 15.13394356 58.64441013 C15.13754832 62.93963485 15.13641104 67.23484812 15.13381577 71.53007317 C15.13314644 73.59744205 15.1339751 75.66481195 15.13629532 77.73217964 C15.13882083 80.61518247 15.13498285 83.49810658 15.12939453 86.38110352 C15.13141876 87.24398483 15.13344299 88.10686615 15.13552856 88.99589539 C15.11426313 94.88573687 15.11426313 94.88573687 14 96 C11.66839945 96.09909302 9.33370058 96.12970504 7 96.125 C5.72125 96.12757813 4.4425 96.13015625 3.125 96.1328125 C0 96 0 96 -1 95 C-1.1005688 92.11921516 -1.13615368 89.26236907 -1.12939453 86.38110352 C-1.13114685 85.47708801 -1.13289917 84.57307251 -1.13470459 83.6416626 C-1.139125 80.63739126 -1.13618421 77.63317825 -1.1328125 74.62890625 C-1.13348554 72.55004363 -1.13445557 70.47118108 -1.13571167 68.39231873 C-1.13718895 64.02838392 -1.13503335 59.66446954 -1.13037109 55.30053711 C-1.12467733 49.69685265 -1.1279504 44.09321612 -1.13394356 38.48953342 C-1.13755138 34.19426612 -1.1364095 29.89901024 -1.13381577 25.6037426 C-1.13314693 23.53720023 -1.13397342 21.47065685 -1.13629532 19.40411568 C-1.13882506 16.51881272 -1.13497649 13.63358811 -1.12939453 10.74829102 C-1.13141876 9.88743393 -1.13344299 9.02657684 -1.13552856 8.13963318 C-1.11426313 2.22852626 -1.11426313 2.22852626 0 0 Z " fill="#AAD1C5" transform="translate(801,634)"/>
<path d="M0 0 C3.57143799 2.05026996 5.39002548 3.23496734 6.734375 7.125 C7.43007421 11.24353934 7.19172801 13.5606233 5.5 17.4375 C2.36256421 20.65337168 0.45702951 21.47119989 -4 22 C-8.69223638 20.82694091 -10.45022193 19.89338936 -13 15.75 C-14.13078257 11.50956535 -14.31888254 9.1893916 -13 5 C-8.97691409 0.49797529 -6.01378712 -1.07389056 0 0 Z " fill="#191C22" transform="translate(738,935)"/>
<path d="M0 0 C3.95364129 2.46170118 5.67678008 3.9542885 7.0625 8.4375 C6.99077767 12.52567307 6.27796642 14.62232566 4 18 C1.51543895 19.95215511 -0.26468047 20.03368661 -3.4375 20.4375 C-7.91903826 19.88713565 -9.20852117 18.44829737 -12 15 C-13.43304064 12.13391871 -13.30644155 10.18699217 -13 7 C-9.70227941 0.97313133 -6.89882233 -0.81162616 0 0 Z " fill="#191D24" transform="translate(775,847)"/>
<path d="M0 0 C3.31248187 -0.02888146 6.62493167 -0.04675799 9.9375 -0.0625 C10.88302734 -0.07087891 11.82855469 -0.07925781 12.80273438 -0.08789062 C14.15141602 -0.09272461 14.15141602 -0.09272461 15.52734375 -0.09765625 C16.77632446 -0.10551147 16.77632446 -0.10551147 18.05053711 -0.11352539 C20 0 20 0 21 1 C21.09873816 2.99799572 21.12971799 4.99957158 21.125 7 C21.12886719 8.6396875 21.12886719 8.6396875 21.1328125 10.3125 C21 13 21 13 20 14 C13.73 14 7.46 14 1 14 C1 28.85 1 43.7 1 59 C0.67 59 0.34 59 0 59 C0 43.49 0 27.98 0 12 C6.27 12 12.54 12 19 12 C19 8.7 19 5.4 19 2 C12.73 2 6.46 2 0 2 C0 1.34 0 0.68 0 0 Z " fill="#24292E" transform="translate(689,878)"/>
<path d="M0 0 C4.62 0 9.24 0 14 0 C14 0.33 14 0.66 14 1 C9.71 1 5.42 1 1 1 C1 7.6 1 14.2 1 21 C-2.96 21 -6.92 21 -11 21 C-11 24.3 -11 27.6 -11 31 C-9.35 31 -7.7 31 -6 31 C-7.98 31.99 -7.98 31.99 -10 33 C-12.21462117 31.23995897 -12.94503183 30.40964372 -13.328125 27.5546875 C-13.30234375 26.67039062 -13.2765625 25.78609375 -13.25 24.875 C-13.23453125 23.98554687 -13.2190625 23.09609375 -13.203125 22.1796875 C-13 20 -13 20 -12 19 C-7.99779347 18.85644883 -4.00558317 18.95783597 0 19 C0 12.73 0 6.46 0 0 Z " fill="#2C3035" transform="translate(675,859)"/>
<path d="M0 0 C3.31248187 -0.02888146 6.62493167 -0.04675799 9.9375 -0.0625 C10.88302734 -0.07087891 11.82855469 -0.07925781 12.80273438 -0.08789062 C14.15141602 -0.09272461 14.15141602 -0.09272461 15.52734375 -0.09765625 C16.77632446 -0.10551147 16.77632446 -0.10551147 18.05053711 -0.11352539 C20 0 20 0 21 1 C21.09873816 2.99799572 21.12971799 4.99957158 21.125 7 C21.12886719 8.6396875 21.12886719 8.6396875 21.1328125 10.3125 C21 13 21 13 20 14 C18.33382885 14.04063832 16.66611905 14.042721 15 14 C15 13.34 15 12.68 15 12 C16.32 12 17.64 12 19 12 C19 8.7 19 5.4 19 2 C12.73 2 6.46 2 0 2 C0 1.34 0 0.68 0 0 Z " fill="#2A2E33" transform="translate(689,878)"/>
<path d="M0 0 C5.28 0 10.56 0 16 0 C15.34 1.65 14.68 3.3 14 5 C13.67 4.34 13.34 3.68 13 3 C10.21533348 2.60740407 10.21533348 2.60740407 7 2.5 C3.6875 2.34375 3.6875 2.34375 1 2 C0.67 1.34 0.34 0.68 0 0 Z " fill="#2A2E33" transform="translate(641,878)"/>
<path d="M0 0 C1.4540625 0.0309375 1.4540625 0.0309375 2.9375 0.0625 C2.9375 0.7225 2.9375 1.3825 2.9375 2.0625 C1.2875 2.0625 -0.3625 2.0625 -2.0625 2.0625 C-2.0625 5.3625 -2.0625 8.6625 -2.0625 12.0625 C-0.4125 12.0625 1.2375 12.0625 2.9375 12.0625 C0.9575 13.0525 0.9575 13.0525 -1.0625 14.0625 C-3.27712117 12.30245897 -4.00753183 11.47214372 -4.390625 8.6171875 C-4.36484375 7.73289062 -4.3390625 6.84859375 -4.3125 5.9375 C-4.29703125 5.04804687 -4.2815625 4.15859375 -4.265625 3.2421875 C-3.94526534 -0.1955181 -3.54662407 0.07238008 0 0 Z " fill="#32363B" transform="translate(666.0625,877.9375)"/>
<path d="M0 0 C0.33 0 0.66 0 1 0 C1.19406478 1.64507218 1.38007935 3.29109594 1.5625 4.9375 C1.66691406 5.85402344 1.77132812 6.77054688 1.87890625 7.71484375 C1.91886719 8.46894531 1.95882812 9.22304688 2 10 C1 11 1 11 -1.5625 11.0625 C-2.366875 11.041875 -3.17125 11.02125 -4 11 C-4 10.34 -4 9.68 -4 9 C-2.68 9 -1.36 9 0 9 C0 6.03 0 3.06 0 0 Z " fill="#34383B" transform="translate(708,881)"/>
<path d="M0 0 C0.66 0 1.32 0 2 0 C2 0.66 2 1.32 2 2 C4.31 2 6.62 2 9 2 C9 2.66 9 3.32 9 4 C6.69 4.33 4.38 4.66 2 5 C1.01 3.68 0.02 2.36 -1 1 C-0.67 0.67 -0.34 0.34 0 0 Z " fill="#B5D7CE" transform="translate(634,509)"/>
</svg>
